<svg width="165" height="40" viewBox="0 0 165 40" fill="none" xmlns="http://www.w3.org/2000/svg">
<path d="M18.4372 21.4885H10.1138V29.8242H18.4372V21.4885Z" fill="#13A38B"/>
<path d="M38.669 21.4885L28.544 31.6465L24.3823 27.5689L24.4364 27.5148L30.4717 21.4885H38.669Z" fill="#13A38B"/>
<path d="M28.9044 10.1577H20.5811V18.4934H28.9044V10.1577Z" fill="#13A38B"/>
<path d="M14.6358 12.4131L8.5464 18.5115H0.349121L10.4741 8.35352L14.6358 12.4131Z" fill="#13A38B"/>
<path d="M28.5441 39.8198H20.1307L10.1138 29.8242H18.4372L28.5441 39.8198Z" fill="#D7F9F1"/>
<path d="M28.9045 10.1577H20.5811L10.4741 0.180176H18.8876L28.9045 10.1577Z" fill="#D7F9F1"/>
<path d="M20.5811 10.1577V18.5115L14.5818 12.4672L10.4741 8.35348L0.349121 18.5115V10.1577L10.4741 0.180176L20.5811 10.1577Z" fill="#1CEAD8"/>
<path d="M38.669 21.4885V29.8242L28.544 39.8198L18.437 29.8242V21.4885L24.4363 27.5148L28.544 31.6465L38.669 21.4885Z" fill="#1CEAD8"/>
<g filter="url(#filter0_d_101_1993)">
<path d="M58.5049 28.5251V8.67822H60.937L69.945 24.3573V8.67822H72.2871V28.5251H69.8189L60.8109 12.8461V28.5251H58.5049Z" fill="white"/>
<path d="M87.3305 28.868C85.7271 28.868 84.3399 28.4349 83.2049 27.5869C82.0518 26.7389 81.1691 25.5481 80.5565 23.9964C79.944 22.4628 79.6377 20.6586 79.6377 18.6017C79.6377 16.5448 79.944 14.7406 80.5565 13.207C81.1691 11.6733 82.0518 10.4645 83.2049 9.61648C84.3579 8.76847 85.7271 8.33545 87.3305 8.33545C88.9339 8.33545 90.3212 8.76847 91.4562 9.61648C92.6092 10.4645 93.492 11.6553 94.1045 13.207C94.7171 14.7406 95.0234 16.5448 95.0234 18.6017C95.0234 20.6586 94.7171 22.4628 94.1045 23.9964C93.492 25.5301 92.6092 26.7389 91.4562 27.5869C90.3032 28.4349 88.9339 28.868 87.3305 28.868ZM87.3305 26.6307C88.8979 26.6307 90.159 25.927 91.1319 24.5377C92.1048 23.1304 92.5912 21.1638 92.5912 18.6017C92.5912 16.0396 92.1048 14.073 91.1319 12.6657C90.159 11.2584 88.8979 10.5727 87.3305 10.5727C85.7451 10.5727 84.466 11.2764 83.5111 12.6657C82.5563 14.073 82.0699 16.0396 82.0699 18.6017C82.0699 21.1638 82.5563 23.1304 83.5111 24.5377C84.466 25.927 85.7451 26.6307 87.3305 26.6307Z" fill="white"/>
<path d="M107.85 28.5251L101.527 8.67822H104.067L109.256 25.4398L114.444 8.67822H117.021L110.679 28.5251H107.85Z" fill="white"/>
<path d="M125.524 28.5251V26.4502H130.028V10.7351H125.524V8.66016H136.911V10.7351H132.407V26.4502H136.911V28.5251H125.524Z" fill="white"/>
<path d="M152.963 28.868C151.557 28.868 150.314 28.453 149.233 27.6411C148.134 26.8111 147.288 25.6383 146.675 24.1047C146.063 22.5711 145.756 20.7308 145.756 18.6017C145.756 16.4907 146.063 14.6684 146.693 13.1348C147.324 11.6012 148.207 10.4284 149.342 9.59846C150.477 8.76849 151.846 8.35352 153.413 8.35352C155.287 8.35352 156.8 8.8948 157.989 9.9954C159.16 11.096 159.881 12.5755 160.097 14.4158H157.449C157.269 13.2792 156.818 12.359 156.134 11.6553C155.449 10.9517 154.53 10.5908 153.395 10.5908C151.774 10.5908 150.495 11.2945 149.576 12.7198C148.657 14.1452 148.189 16.1118 148.189 18.6198C148.189 21.1638 148.657 23.1485 149.576 24.5558C150.495 25.9631 151.702 26.6487 153.179 26.6487C154.242 26.6487 155.107 26.324 155.791 25.6925C156.476 25.061 156.98 24.2491 157.341 23.2567C157.683 22.2644 157.881 21.2359 157.917 20.1714H153.503V18.1326H160.349V28.5432H158.169L157.971 25.5301H157.863C157.467 26.5585 156.89 27.3704 156.116 27.9658C155.323 28.5613 154.296 28.868 152.963 28.868Z" fill="white"/>
</g>
<defs>
<filter id="filter0_d_101_1993" x="54.5049" y="8.33545" width="109.844" height="28.5325" filterUnits="userSpaceOnUse" color-interpolation-filters="sRGB">
<feFlood flood-opacity="0" result="BackgroundImageFix"/>
<feColorMatrix in="SourceAlpha" type="matrix" values="0 0 0 0 0 0 0 0 0 0 0 0 0 0 0 0 0 0 127 0" result="hardAlpha"/>
<feOffset dy="4"/>
<feGaussianBlur stdDeviation="2"/>
<feComposite in2="hardAlpha" operator="out"/>
<feColorMatrix type="matrix" values="0 0 0 0 0 0 0 0 0 0 0 0 0 0 0 0 0 0 0.25 0"/>
<feBlend mode="normal" in2="BackgroundImageFix" result="effect1_dropShadow_101_1993"/>
<feBlend mode="normal" in="SourceGraphic" in2="effect1_dropShadow_101_1993" result="shape"/>
</filter>
</defs>
</svg>
